Coordinates
version=1
nRows=26
nColumns=24
inDegrees=yes

Units are S.I. units (second, meters, Newtons, ...)
Angles are in degrees.

endheader
time	pelvis_tilt	pelvis_list	pelvis_rotation	pelvis_tx	pelvis_ty	pelvis_tz	hip_flexion_r	hip_adduction_r	hip_rotation_r	knee_angle_r	ankle_angle_r	subtalar_angle_r	mtp_angle_r	hip_flexion_l	hip_adduction_l	hip_rotation_l	knee_angle_l	ankle_angle_l	subtalar_angle_l	mtp_angle_l	lumbar_extension	lumbar_bending	lumbar_rotation
      0.78333333	      1.56929337	     -3.04941269	      0.28136300	     -0.48270228	      1.07207644	      0.36989956	      7.31118712	      7.86386012	     -5.42930570	    -12.30434940	      2.28266293	     -7.87777297	     -0.60931535	     13.00997812	     -3.59291907	     -0.74139512	    -68.21887901	      3.04626794	     -5.77962422	      4.94594485	      2.87473612	      6.38836019	     -3.68531431
      0.78750000	      1.59776241	     -2.92622879	      0.30422017	     -0.47781842	      1.07274934	      0.37005362	      6.94149136	      7.76505695	     -5.29282238	    -12.22263759	      2.38940142	     -7.92860402	     -0.62536679	     13.59172499	     -3.39197664	     -0.45842507	    -68.18261175	      3.47840716	     -6.02478728	      4.89292110	      2.80886755	      6.20604276	     -3.61264774
      0.79166667	      1.60230944	     -2.80692220	      0.31146689	     -0.47274579	      1.07341190	      0.37025090	      6.57687406	      7.67432214	     -5.18033516	    -12.10014915	      2.51003631	     -7.99095383	     -0.64055441	     14.16172007	     -3.20015439	     -0.21413384	    -68.06481923	      3.91753862	     -6.29927352	      4.84151484	      2.73956890	      6.03632778	     -3.53886875
      0.79583333	      1.63178233	     -2.68121358	      0.31371501	     -0.46789453	      1.07404868	      0.37040571	      6.20694066	      7.57209651	     -5.04228280	    -12.01176341	      2.62188373	     -8.04992738	     -0.65343064	     14.71217008	     -2.99184152	      0.04561329	    -67.90888683	      4.31147052	     -6.57311974	      4.79612278	      2.67692824	      5.87103848	     -3.46591912
      0.80000000	      1.65102655	     -2.56574776	      0.29429314	     -0.46291040	      1.07467848	      0.37055363	      5.83538058	      7.48026005	     -4.92473512	    -11.90742968	      2.75655630	     -8.13500096	     -0.66945138	     15.23900178	     -2.79130700	      0.27641750	    -67.67766645	      4.73920470	     -6.90994447	      4.73875070	      2.61179486	      5.72557960	     -3.38343770
      0.80416667	      1.67494585	     -2.45338795	      0.27181769	     -0.45797436	      1.07528841	      0.37070099	      5.45924978	      7.39230020	     -4.78159003	    -11.80668930	      2.88121876	     -8.21583655	     -0.68647438	     15.75121597	     -2.59299737	      0.50875713	    -67.39753541	      5.10834907	     -7.25541852	      4.67544859	      2.54378880	      5.58324864	     -3.29518875
      0.80833333	      1.70400660	     -2.34753921	      0.24691282	     -0.45308872	      1.07587001	      0.37084993	      5.07932358	      7.31028981	     -4.62836363	    -11.70060836	      3.00031822	     -8.29010344	     -0.70298641	     16.24896678	     -2.40017151	      0.74161278	    -67.06642845	      5.43676864	     -7.61449092	      4.61187641	      2.47366578	      5.44378699	     -3.20508098
      0.81250000	      1.72847893	     -2.24416835	      0.20493426	     -0.44815422	      1.07642819	      0.37101434	      4.69717692	      7.23307696	     -4.47662069	    -11.58550712	      3.12888338	     -8.38108780	     -0.72233920	     16.72605272	     -2.21180410	      0.95277704	    -66.67088030	      5.75111675	     -8.03464733	      4.53629737	      2.40529351	      5.31381760	     -3.10495053
      0.81666667	      1.75204749	     -2.15152158	      0.16287388	     -0.44323808	      1.07695997	      0.37116745	      4.31324643	      7.16610927	     -4.30989007	    -11.46134118	      3.24637133	     -8.46478368	     -0.74191962	     17.19121150	     -2.03403601	      1.16585936	    -66.22313392	      6.01527744	     -8.46578814	      4.45804873	      2.33660860	      5.19500480	     -3.00429105
      0.82083333	      1.80198644	     -2.03355256	      0.04751918	     -0.43836311	      1.07751645	      0.37131354	      3.91816478	      7.06150064	     -4.15279600	    -11.38114404	      3.38898672	     -8.61553694	     -0.78139184	     17.59321318	     -1.83598009	      1.29542554	    -65.69571385	      6.23201324	     -9.12818620	      4.30170941	      2.20693121	      5.10785804	     -2.84844351
      0.82500000	      1.80108428	     -1.95666857	      0.02631234	     -0.43351494	      1.07793619	      0.37135181	      3.55898608	      7.00006746	     -3.97838705	    -11.24822396	      3.43690612	     -8.62523668	     -0.79054042	     18.06407081	     -1.65704047	      1.56223691	    -65.15030349	      6.35293959	     -9.32680768	      4.26234930	      2.13663192	      5.04424267	     -2.79856813
      0.82916667	      1.84684828	     -1.86981678	     -0.07646475	     -0.42855076	      1.07843655	      0.37160727	      3.14267657	      6.94385684	     -3.80392213	    -11.11349636	      3.61827565	     -8.81093463	     -0.83486405	     18.43383601	     -1.50816437	      1.67675992	    -64.52079295	      6.59748942	    -10.21752509	      4.08246254	      2.05229569	      4.90397251	     -2.61766959
      0.83333333	      1.87219953	     -1.82015426	     -0.07235280	     -0.42362318	      1.07883704	      0.37176118	      2.72229971	      6.92914691	     -3.58905628	    -10.91063377	      3.69144053	     -8.83381154	     -0.85626943	     18.83691691	     -1.37328884	      1.93924968	    -63.86628191	      6.71189707	    -10.61706531	      3.99101042	      2.02906113	      4.79178490	     -2.51628027
      0.83750000	      1.90181024	     -1.74229898	     -0.13997780	     -0.41866326	      1.07924988	      0.37188817	      2.30783688	      6.87024406	     -3.41028049	    -10.74377146	      3.81654631	     -8.93934247	     -0.88450842	     19.19309458	     -1.21490486	      2.11516234	    -63.13425487	      6.89664104	    -11.26130768	      3.87189728	      1.97881825	      4.68622865	     -2.40004445
      0.84166667	      1.97452760	     -1.67564281	     -0.27461729	     -0.41390613	      1.07967475	      0.37204617	      1.87304254	      6.81818681	     -3.17592101	    -10.60900919	      3.87702975	     -9.08667471	     -0.97889094	     19.49129608	     -1.08477404	      2.21714888	    -62.32697830	      6.62465188	    -12.29323034	      3.48136235	      1.70477607	      4.67019622	     -2.13595896
      0.84583333	      1.97797593	     -1.62343890	     -0.29973869	     -0.40890612	      1.07996659	      0.37212703	      1.47346355	      6.78576471	     -3.04430212	    -10.41157115	      3.97801158	     -9.13234765	     -1.00173303	     19.84359838	     -0.94792339	      2.44394736	    -61.50714870	      6.86939387	    -12.64698433	      3.38601759	      1.75340779	      4.58569484	     -2.06305313
      0.85000000	      1.97379320	     -1.57927801	     -0.35720213	     -0.40395730	      1.08021003	      0.37222713	      1.08298153	      6.76109503	     -2.85503505	    -10.21420214	      4.09584790	     -9.21823396	     -1.03080782	     20.18228163	     -0.82951398	      2.63174718	    -60.62917402	      7.04753092	    -13.23538686	      3.25931589	      1.74642020	      4.51032506	     -1.97750383
      0.85416667	      1.99981817	     -1.51590551	     -0.51523916	     -0.39912798	      1.08048493	      0.37236802	      0.69121959	      6.70402653	     -2.66289819	    -10.07322641	      4.19106225	     -9.40557917	     -1.10052731	     20.45777611	     -0.71595538	      2.70042995	    -59.66037412	      6.90491369	    -14.25308287	      2.95876599	      1.55744969	      4.45739491	     -1.81614854
      0.85833333	      2.03087315	     -1.46701314	     -0.57968627	     -0.39415091	      1.08073113	      0.37242942	      0.25375043	      6.66557629	     -2.49637312	     -9.85691346	      4.26162510	     -9.50027688	     -1.16509028	     20.70664128	     -0.59610507	      2.87519391	    -58.65116903	      6.87842348	    -14.91775198	      2.67982274	      1.51826100	      4.39840442	     -1.66865104
      0.86250000	      2.00910723	     -1.47362645	     -0.58160770	     -0.38921720	      1.08080732	      0.37246578	     -0.13950820	      6.69823998	     -2.30351847	     -9.60228330	      4.32277090	     -9.51420322	     -1.18976697	     21.01912593	     -0.52759706	      3.12444028	    -57.64070213	      6.95053177	    -15.25521624	      2.56652759	      1.55227783	      4.41520534	     -1.60926131
      0.86666667	      2.02860440	     -1.41994105	     -0.73127297	     -0.38431572	      1.08097503	      0.37257297	     -0.54606848	      6.64673955	     -2.10602736	     -9.42335817	      4.42097747	     -9.72461149	     -1.26343949	     21.22799045	     -0.43140844	      3.19302038	    -56.50735074	      6.80326938	    -16.25889460	      2.23687086	      1.38740429	      4.32199574	     -1.45685680
      0.87083333	      2.04631802	     -1.39274680	     -0.79325758	     -0.37932601	      1.08108509	      0.37260110	     -0.98201677	      6.62853033	     -1.93194101	     -9.17825664	      4.46658328	     -9.85111219	     -1.34647396	     21.42549149	     -0.34443415	      3.35886093	    -55.33622393	      6.64070789	    -16.94952293	      1.86489230	      1.35630628	      4.30596218	     -1.29904359
      0.87500000	      2.03800508	     -1.37920354	     -0.86538653	     -0.37436953	      1.08110743	      0.37262341	     -1.38596711	      6.62505365	     -1.74106911	     -8.94034649	      4.53964265	     -9.96986646	     -1.42828772	     21.63238635	     -0.27674463	      3.52008698	    -54.12878887	      6.56121604	    -17.55349841	      1.49520246	      1.32133684	      4.29666561	     -1.18000874
      0.87916667	      1.91892518	     -1.41192408	     -0.88905022	     -0.36944628	      1.08087950	      0.37256481	     -1.65750483	      6.67416750	     -1.66757130	     -8.70928899	      4.57340202	     -9.96796393	     -1.43538106	     21.96641915	     -0.24812776	      3.73085204	    -52.92953823	      6.63060749	    -17.62496142	      1.45976078	      1.26852249	      4.38959370	     -1.18083534
      0.88333333	      1.96076557	     -1.37602219	     -0.99191005	     -0.36437466	      1.08094512	      0.37261824	     -2.14320232	      6.64138121	     -1.39239400	     -8.44180652	      4.67752089	    -10.22728723	     -1.51020387	     22.04385698	     -0.17487195	      3.85308287	    -51.56876272	      6.38736914	    -18.58221840	      1.10760641	      1.33709552	      4.24954625	     -1.02905117
      0.88750000	      1.84230314	     -1.42261202	     -1.00779627	     -0.35944446	      1.08063009	      0.37247781	     -2.42253698	      6.69838867	     -1.30955021	     -8.19969325	      4.70510392	    -10.22808374	     -1.51883500	     22.33175591	     -0.15798671	      4.08148107	    -50.27117750	      6.42654637	    -18.65026693	      1.06389289	      1.30455230	      4.39134193	     -1.03036972
